<svg width="28" height="29" viewBox="0 0 28 29" fill="none" xmlns="http://www.w3.org/2000/svg">
<g filter="url(#filter0_d_161_152)">
<path d="M13.9999 1.8324C8.94555 1.8324 4.83325 5.9447 4.83325 10.9991C4.83325 12.5003 5.22866 13.9034 5.86987 15.1545L4.87622 18.712C4.64478 19.5385 5.46205 20.3557 6.28882 20.1246L9.84896 19.1309C11.099 19.7708 12.5001 20.1657 13.9999 20.1657C19.0543 20.1657 23.1666 16.0534 23.1666 10.9991C23.1666 5.9447 19.0543 1.8324 13.9999 1.8324ZM10.3333 7.79163H13.9999C14.7594 7.79163 15.3749 8.40717 15.3749 9.16663V12.8333C15.3749 13.5928 14.7594 14.2083 13.9999 14.2083H10.3333C9.57379 14.2083 8.95825 13.5928 8.95825 12.8333V9.16663C8.95825 8.40717 9.57379 7.79163 10.3333 7.79163ZM18.3219 8.25265C18.4439 8.24692 18.5676 8.27273 18.6799 8.33232C18.9045 8.45148 19.0416 8.68538 19.0416 8.93746V13.0625C19.0416 13.3145 18.9045 13.5484 18.6799 13.6676C18.5791 13.7226 18.4641 13.75 18.3541 13.75C18.2212 13.75 18.0882 13.7133 17.9736 13.6354L16.2916 12.5128V9.4871L17.9736 8.36454C18.0791 8.29579 18.1998 8.25837 18.3219 8.25265Z" fill="#4246B4"/>
</g>
<defs>
<filter id="filter0_d_161_152" x="-1" y="0" width="30" height="30" filterUnits="userSpaceOnUse" color-interpolation-filters="sRGB">
<feFlood flood-opacity="0" result="BackgroundImageFix"/>
<feColorMatrix in="SourceAlpha" type="matrix" values="0 0 0 0 0 0 0 0 0 0 0 0 0 0 0 0 0 0 127 0" result="hardAlpha"/>
<feOffset dy="4"/>
<feGaussianBlur stdDeviation="2"/>
<feComposite in2="hardAlpha" operator="out"/>
<feColorMatrix type="matrix" values="0 0 0 0 0 0 0 0 0 0 0 0 0 0 0 0 0 0 0.25 0"/>
<feBlend mode="normal" in2="BackgroundImageFix" result="effect1_dropShadow_161_152"/>
<feBlend mode="normal" in="SourceGraphic" in2="effect1_dropShadow_161_152" result="shape"/>
</filter>
</defs>
</svg>
